# xmcd
#
# Track frame offsets:
#	150
#	82693
#	116352
#	181638
#
# Disc length: 3610 seconds
#
# Revision: 3
# Processed by: cddbd v1.5.2PL0 Copyright (c) Steve Scherf et al.
# Submitted via: audiograbber 1.83.01
#
DISCID=1b0e1804
DTITLE=Tangerine Dream - The Virgin Years 1977-1983 [CD 2) [remastered]
DYEAR=2012
DGENRE=Electronic
TTITLE0=Force Majeure - Force Majeure
TTITLE1=Force Majeure - Cloudburst Flight
TTITLE2=Force Majeure - Thru Metamorphic Rocks
TTITLE3=Tangram [side one] - Tangram (Set 1)
EXTD=
EXTT0=
EXTT1=
EXTT2=
EXTT3=
PLAYORDER=
